<svg viewBox="0.844 1.042 181.764 230.029" width="181.764" height="230.029" fill="none" xmlns="http://www.w3.org/2000/svg">
  <path style="fill: rgb(127, 236, 155); stroke: rgb(127, 236, 155);" d="M 62.115 123.679 L 0.844 148.61 L 37.607 191.852 L 98.737 167.062"></path>
  <path style="stroke: rgb(172, 158, 207); fill: rgb(172, 158, 207);" d="M 98.738 167.023 L 140.861 149.17 C 140.921 149.229 196.293 130.238 153.793 79.627 C 146.185 88.098 138.286 92.546 121.479 99.478 L 61.817 123.57"></path>
  <path style="fill: rgb(143, 255, 164); stroke: rgb(143, 255, 164);" d="M 37.592 192.326 L 56.059 214.063 C 66.407 226.511 80.196 239.588 117.326 223.838 L 139.175 214.958 L 98.799 167.426"></path>
  <path style="stroke: rgb(138, 246, 159); fill: rgb(115, 255, 142);" d="M 13.826 69.559 L 49.414 112.465 L 157.948 68.171 C 177.361 61.019 196.12 39.971 169.174 5.223 L 166.325 1.042 C 157.349 13.914 137.583 20.677 124.636 25.821 L 13.826 69.559 Z"></path>
</svg>